<?xml version="1.0" encoding="utf-8"?>
<!DOCTYPE svg PUBLIC "-//W3C//DTD SVG 1.1//EN" "http://www.w3.org/Graphics/SVG/1.1/DTD/svg11.dtd" [
	<!ENTITY ns_svg "http://www.w3.org/2000/svg">
	<!ENTITY ns_xlink "http://www.w3.org/1999/xlink">
]>
<svg  version="1.1" xmlns="&ns_svg;" xmlns:xlink="&ns_xlink;" width="252.537" height="270" viewBox="0 0 252.537 270"
	 overflow="visible" enable-background="new 0 0 252.537 270" xml:space="preserve">
<g id="Capa_3">
	<ellipse fill="#EEEEEC" cx="98" cy="254.999" rx="78" ry="15.001"/>
</g>
<g id="Capa_1">
</g>
<g id="Capa_5">
	<g>
		<g>
			<g>
				<defs>
					<path id="XMLID_3_" d="M167.282,235.583c0.189,10.575-5.027,19.148-11.652,19.148H41.395c-6.625,0-11.746-8.573-11.436-19.148
						L35.29,53.235c0.309-10.575,5.526-19.148,11.653-19.148h105.633c6.126,0,11.247,8.573,11.437,19.148L167.282,235.583z"/>
				</defs>
				<clipPath id="XMLID_25_">
					<use xlink:href="#XMLID_3_" />
				</clipPath>
			</g>
		</g>
		<g>
			<g>
				<path fill="none" stroke="#2E3436" stroke-width="7" d="M167.299,236.519c0.19,10.575-5.029,19.148-11.656,19.148H41.371
					c-6.628,0-11.75-8.573-11.44-19.148l5.332-182.347c0.309-10.575,5.528-19.148,11.657-19.148h105.67
					c6.128,0,11.25,8.573,11.439,19.148L167.299,236.519z"/>
				<path fill="#555753" d="M167.299,236.519c0.19,10.575-5.029,19.148-11.656,19.148H41.371c-6.628,0-11.75-8.573-11.44-19.148
					l5.332-182.347c0.309-10.575,5.528-19.148,11.657-19.148h105.67c6.128,0,11.25,8.573,11.439,19.148L167.299,236.519z"/>
			</g>
			<g>
				<g>
					<g>
						<path fill="#4E9A06" d="M143.372,45.127h-88.95c-5.16,0-9.542,7.818-9.79,17.464l-1.056,41.053h109.948l-0.568-41.053
							C152.822,52.945,148.53,45.127,143.372,45.127z"/>
					</g>
					<g>
						<path fill="none" stroke="#D3D7CF" stroke-width="2" d="M143.372,45.127h-88.95c-5.16,0-9.542,7.818-9.79,17.464
							l-1.056,41.053h109.948l-0.568-41.053C152.822,52.945,148.53,45.127,143.372,45.127z"/>
					</g>
				</g>
				<g>
					<g>
						<path fill="#CE5C00" d="M41.471,188.364l-1.067,41.506c-0.248,9.644,4.042,17.463,9.585,17.463h95.562
							c5.542,0,9.927-7.819,9.793-17.463l-0.575-41.506H41.471z"/>
					</g>
					<g>
						<path fill="none" stroke="#D3D7CF" stroke-width="2" d="M41.471,188.364l-1.067,41.506
							c-0.248,9.644,4.042,17.463,9.585,17.463h95.562c5.542,0,9.927-7.819,9.793-17.463l-0.575-41.506H41.471z"/>
					</g>
				</g>
				<g>
					<g>
						<polygon fill="#3465A4" points="41.707,176.302 154.528,176.302 153.691,115.824 43.263,115.824 						"/>
					</g>
					<g>
						<polygon fill="none" stroke="#D3D7CF" stroke-width="2" points="41.707,176.302 154.528,176.302 153.691,115.824 
							43.263,115.824 						"/>
					</g>
				</g>
			</g>
			<g>
				<defs>
					<path id="XMLID_5_" d="M167.282,235.583c0.189,10.575-5.027,19.148-11.652,19.148H41.395c-6.625,0-11.746-8.573-11.436-19.148
						L35.29,53.235c0.309-10.575,5.526-19.148,11.653-19.148h105.633c6.126,0,11.247,8.573,11.437,19.148L167.282,235.583z"/>
				</defs>
				<clipPath id="XMLID_26_">
					<use xlink:href="#XMLID_5_" />
				</clipPath>
				<g clip-path="url(#XMLID_26_)">
					<path opacity="0.25" fill="#EEEEEC" d="M7.23,249.429C-31.263,211.532,168.627-11.636,221.575,40.764
						c54.949,52.4-10.138-24.329-10.138-24.329L22.153,19.243L0.282,248.493L7.23,249.429z"/>
				</g>
			</g>
		</g>
		<g>
			<g>
				<defs>
					<path id="XMLID_7_" d="M167.282,235.583c0.189,10.575-5.027,19.148-11.652,19.148H41.395c-6.625,0-11.746-8.573-11.436-19.148
						L35.29,53.235c0.309-10.575,5.526-19.148,11.653-19.148h105.633c6.126,0,11.247,8.573,11.437,19.148L167.282,235.583z"/>
				</defs>
				<clipPath id="XMLID_27_">
					<use xlink:href="#XMLID_7_" />
				</clipPath>
			</g>
		</g>
	</g>
</g>
<g id="Capa_4">
</g>
<g id="Capa_2">
	<path opacity="0.85" fill="#729FCF" stroke="#204A87" stroke-width="2" d="M168.334,38c-70.602,0-42.027,71.167-61.54,107.415
		c10.82-20.1,78.743-2.766,101.137-22.628c11.583-10.272,15.884-22.314,16.223-34.037C225.75,33.5,198.574,38,168.334,38"/>
</g>
</svg>
